<?xml version="1.0" encoding="UTF-8" standalone="no" ?>
<!DOCTYPE svg PUBLIC "-//W3C//DTD SVG 1.1//EN" "http://www.w3.org/Graphics/SVG/1.1/DTD/svg11.dtd">
<svg xmlns="http://www.w3.org/2000/svg" xmlns:xlink="http://www.w3.org/1999/xlink" version="1.1" width="1080" height="1080" viewBox="0 0 1080 1080" xml:space="preserve">
<desc>Created with Fabric.js 5.2.4</desc>
<defs>
</defs>
<g transform="matrix(1 0 0 1 540 540)" id="c6036a7d-5911-48f8-95ab-fa0416337a45"  >
<rect style="stroke: none; stroke-width: 1; stroke-dasharray: none; stroke-linecap: butt; stroke-dashoffset: 0; stroke-linejoin: miter; stroke-miterlimit: 4; fill: rgb(255,255,255); fill-rule: nonzero; opacity: 1; visibility: hidden;" vector-effect="non-scaling-stroke"  x="-540" y="-540" rx="0" ry="0" width="1080" height="1080" />
</g>
<g transform="matrix(1 0 0 1 540 540)" id="9f501f16-3d2c-42d5-a1d5-00c1773ddde6"  >
</g>
<g transform="matrix(6.63 0 0 1.57 521.98 500.34)" id="c8eab30f-b0fc-4495-9048-eeb3595f8a33"  >
<rect style="stroke: rgb(0,0,0); stroke-width: 0; stroke-dasharray: none; stroke-linecap: butt; stroke-dashoffset: 0; stroke-linejoin: miter; stroke-miterlimit: 4; fill: rgb(255,255,255); fill-rule: nonzero; opacity: 1;" vector-effect="non-scaling-stroke"  x="-33.085" y="-33.085" rx="0" ry="0" width="66.17" height="66.17" />
</g>
<g transform="matrix(2.22 0 0 2.18 517.5 501.02)"  >
<g style="" vector-effect="non-scaling-stroke"   >
		<g transform="matrix(1 0 0 1 -41.95 -9.04)"  >
<path style="stroke: none; stroke-width: 1; stroke-dasharray: none; stroke-linecap: butt; stroke-dashoffset: 0; stroke-linejoin: miter; stroke-miterlimit: 4; fill: rgb(20,74,147); fill-rule: nonzero; opacity: 1;" vector-effect="non-scaling-stroke"  transform=" translate(-23.09, -10.97)" d="M 32.43 1.99 C 24.21 0.9099999999999999 20.72 7.95 20.72 7.95 L 13.759999999999998 20.07 L 13.759999999999998 20.07 C 18.86 20.07 23.58 17.34 26.129999999999995 12.92 L 32.42999999999999 1.9900000000000002 Z" stroke-linecap="round" />
</g>
		<g transform="matrix(1 0 0 1 -35.48 5.52)"  >
<path style="stroke: none; stroke-width: 1; stroke-dasharray: none; stroke-linecap: butt; stroke-dashoffset: 0; stroke-linejoin: miter; stroke-miterlimit: 4; fill: rgb(251,169,25); fill-rule: nonzero; opacity: 1;" vector-effect="non-scaling-stroke"  transform=" translate(-29.55, -25.53)" d="M 32.43 38.15 C 37.49 31.58 33.15 25.03 33.15 25.03 L 26.14 12.910000000000002 L 26.14 12.910000000000002 C 23.59 17.340000000000003 23.59 22.800000000000004 26.14 27.230000000000004 L 32.43 38.150000000000006 Z" stroke-linecap="round" />
</g>
		<g transform="matrix(1 0 0 1 -51.41 3.64)"  >
<path style="stroke: none; stroke-width: 1; stroke-dasharray: none; stroke-linecap: butt; stroke-dashoffset: 0; stroke-linejoin: miter; stroke-miterlimit: 4; fill: rgb(186,33,38); fill-rule: nonzero; opacity: 1;" vector-effect="non-scaling-stroke"  transform=" translate(-13.63, -23.65)" d="M 1.14 20.06 C 4.31 27.729999999999997 12.14 27.229999999999997 12.14 27.229999999999997 L 26.12 27.209999999999997 L 26.12 27.209999999999997 C 23.57 22.79 18.86 20.059999999999995 13.750000000000002 20.059999999999995 L 1.14 20.059999999999995 Z" stroke-linecap="round" />
</g>
		<g transform="matrix(1 0 0 1 -11.77 0)"  >
<polygon style="stroke: none; stroke-width: 1; stroke-dasharray: none; stroke-linecap: butt; stroke-dashoffset: 0; stroke-linejoin: miter; stroke-miterlimit: 4; fill: rgb(27,27,27); fill-rule: nonzero; opacity: 1;" vector-effect="non-scaling-stroke"  points="-2.8,-7.6 -6.23,-7.6 -6.23,7.6 -4.53,7.6 -2.8,7.6 6.23,7.6 6.23,4.69 -2.8,4.69 -2.8,-7.6 " />
</g>
		<g transform="matrix(1 0 0 1 2.73 1.33)"  >
<path style="stroke: none; stroke-width: 1; stroke-dasharray: none; stroke-linecap: butt; stroke-dashoffset: 0; stroke-linejoin: miter; stroke-miterlimit: 4; fill: rgb(27,27,27); fill-rule: nonzero; opacity: 1;" vector-effect="non-scaling-stroke"  transform=" translate(-67.77, -21.33)" d="M 67.88 14.89 C 66.24 14.89 64.88 15.16 63.78999999999999 15.690000000000001 C 62.69999999999999 16.23 61.88999999999999 16.970000000000002 61.35999999999999 17.94 C 60.82999999999999 18.900000000000002 60.559999999999995 20.060000000000002 60.559999999999995 21.400000000000002 C 60.559999999999995 22.740000000000002 60.849999999999994 23.92 61.419999999999995 24.87 C 61.989999999999995 25.830000000000002 62.85999999999999 26.55 64.00999999999999 27.04 C 65.16999999999999 27.529999999999998 66.6 27.779999999999998 68.30999999999999 27.779999999999998 C 69.66999999999999 27.779999999999998 70.80999999999999 27.65 71.72999999999999 27.38 C 72.64999999999999 27.11 73.58999999999999 26.709999999999997 74.54999999999998 26.18 L 73.08999999999999 23.68 C 72.46999999999998 24.22 71.78999999999999 24.61 71.02999999999999 24.86 C 70.27999999999999 25.11 69.42999999999999 25.24 68.47999999999999 25.24 C 67.52999999999999 25.24 66.71999999999998 25.099999999999998 66.05999999999999 24.819999999999997 C 65.38999999999999 24.539999999999996 64.87999999999998 24.109999999999996 64.50999999999999 23.539999999999996 C 64.3 23.209999999999997 64.14999999999999 22.829999999999995 64.05999999999999 22.399999999999995 L 74.98999999999998 22.399999999999995 L 74.98999999999998 21.399999999999995 C 74.98999999999998 19.319999999999993 74.42999999999998 17.709999999999994 73.29999999999998 16.579999999999995 C 72.16999999999999 15.449999999999996 70.36999999999998 14.889999999999995 67.87999999999998 14.889999999999995 Z M 65.87 17.85 C 66.48 17.55 67.19 17.400000000000002 67.99000000000001 17.400000000000002 C 68.87 17.400000000000002 69.57000000000001 17.540000000000003 70.11000000000001 17.820000000000004 C 70.65000000000002 18.100000000000005 71.05000000000001 18.540000000000003 71.32000000000001 19.140000000000004 C 71.47000000000001 19.480000000000004 71.58000000000001 19.880000000000003 71.64 20.320000000000004 L 64.06 20.320000000000004 C 64.14 19.900000000000002 64.27 19.520000000000003 64.46000000000001 19.180000000000003 C 64.79 18.580000000000002 65.26 18.130000000000003 65.87 17.830000000000002 Z" stroke-linecap="round" />
</g>
		<g transform="matrix(1 0 0 1 19.13 1.25)"  >
<path style="stroke: none; stroke-width: 1; stroke-dasharray: none; stroke-linecap: butt; stroke-dashoffset: 0; stroke-linejoin: miter; stroke-miterlimit: 4; fill: rgb(27,27,27); fill-rule: nonzero; opacity: 1;" vector-effect="non-scaling-stroke"  transform=" translate(-84.18, -21.27)" d="M 89.72 16.16 C 88.74 15.33 87.37 14.91 85.59 14.91 C 84.04 14.91 82.77000000000001 15.24 81.77000000000001 15.9 C 81.16000000000001 16.3 80.67000000000002 16.84 80.31000000000002 17.52 L 79.45000000000002 15.09 L 77.17000000000002 15.09 L 77.17000000000002 27.619999999999997 L 80.51000000000002 27.619999999999997 L 80.51000000000002 20.909999999999997 C 80.64000000000001 19.899999999999995 81.02000000000002 19.109999999999996 81.65000000000002 18.529999999999998 C 82.31000000000002 17.929999999999996 83.21000000000002 17.63 84.36000000000001 17.63 C 85.51 17.63 86.34000000000002 17.9 86.93 18.439999999999998 C 87.53 18.979999999999997 87.82000000000001 19.779999999999998 87.82000000000001 20.839999999999996 L 87.82000000000001 27.609999999999996 L 91.18 27.609999999999996 L 91.18 19.839999999999996 C 91.18 18.219999999999995 90.69000000000001 16.989999999999995 89.72000000000001 16.159999999999997 Z" stroke-linecap="round" />
</g>
		<g transform="matrix(1 0 0 1 32.8 0.1)"  >
<path style="stroke: none; stroke-width: 1; stroke-dasharray: none; stroke-linecap: butt; stroke-dashoffset: 0; stroke-linejoin: miter; stroke-miterlimit: 4; fill: rgb(27,27,27); fill-rule: nonzero; opacity: 1;" vector-effect="non-scaling-stroke"  transform=" translate(-97.84, -20.11)" d="M 101.6 25.09 C 101.27 25.16 100.92999999999999 25.2 100.58999999999999 25.2 C 100.03999999999999 25.2 99.63 25.14 99.35 25.029999999999998 C 99.07 24.909999999999997 98.88 24.749999999999996 98.78 24.54 C 98.68 24.33 98.63 24.02 98.63 23.619999999999997 L 98.63 17.65 L 102.83 17.65 L 102.83 15.089999999999998 L 98.63 15.089999999999998 L 98.63 12.419999999999998 L 96.58 12.419999999999998 L 95.42 15.089999999999998 L 92.83 15.089999999999998 L 92.83 17.65 L 95.27 17.65 L 95.24 24.229999999999997 C 95.24 25.08 95.42 25.779999999999998 95.77 26.309999999999995 C 96.11999999999999 26.849999999999994 96.63 27.229999999999997 97.31 27.459999999999994 C 97.98 27.689999999999994 98.84 27.809999999999995 99.87 27.809999999999995 C 100.79 27.809999999999995 101.79 27.709999999999994 102.86 27.509999999999994 L 102.58 24.799999999999994 C 102.25 24.929999999999993 101.92 25.029999999999994 101.59 25.099999999999994 Z" stroke-linecap="round" />
</g>
		<g transform="matrix(1 0 0 1 44.44 1.25)"  >
<path style="stroke: none; stroke-width: 1; stroke-dasharray: none; stroke-linecap: butt; stroke-dashoffset: 0; stroke-linejoin: miter; stroke-miterlimit: 4; fill: rgb(27,27,27); fill-rule: nonzero; opacity: 1;" vector-effect="non-scaling-stroke"  transform=" translate(-109.48, -21.27)" d="M 112.95 14.91 C 112.06 14.91 111.25 15.08 110.51 15.43 C 109.77000000000001 15.78 109.17 16.27 108.71000000000001 16.9 C 108.54 17.13 108.39000000000001 17.38 108.27000000000001 17.639999999999997 L 107.35000000000001 15.089999999999996 L 105.07000000000001 15.089999999999996 L 105.07000000000001 27.619999999999997 L 108.39 27.619999999999997 L 108.42 21.419999999999998 C 108.47 20.72 108.65 20.119999999999997 108.96000000000001 19.619999999999997 C 109.28 19.109999999999996 109.71000000000001 18.72 110.24000000000001 18.47 C 110.77000000000001 18.22 111.42000000000002 18.09 112.2 18.09 C 112.5 18.09 112.79 18.09 113.07000000000001 18.1 C 113.35000000000001 18.1 113.62 18.12 113.88000000000001 18.130000000000003 L 113.88000000000001 14.980000000000002 C 113.79 14.950000000000003 113.67000000000002 14.930000000000001 113.51 14.930000000000001 C 113.35000000000001 14.930000000000001 113.17 14.920000000000002 112.95 14.920000000000002 Z" stroke-linecap="round" />
</g>
		<g transform="matrix(1 0 0 1 57.18 1.35)"  >
<path style="stroke: none; stroke-width: 1; stroke-dasharray: none; stroke-linecap: butt; stroke-dashoffset: 0; stroke-linejoin: miter; stroke-miterlimit: 4; fill: rgb(27,27,27); fill-rule: nonzero; opacity: 1;" vector-effect="non-scaling-stroke"  transform=" translate(-122.22, -21.36)" d="M 127.36 16.13 C 126.31 15.329999999999998 124.57 14.93 122.13 14.93 C 120.82 14.93 119.6 15.09 118.46 15.41 C 117.32 15.73 116.33 16.15 115.5 16.67 L 116.92 19.19 C 117.68 18.6 118.47 18.17 119.29 17.900000000000002 C 120.11 17.630000000000003 120.97000000000001 17.500000000000004 121.87 17.500000000000004 C 123.16000000000001 17.500000000000004 124.11 17.700000000000003 124.72 18.090000000000003 C 125.33 18.480000000000004 125.64 19.090000000000003 125.64 19.910000000000004 L 125.64 19.910000000000004 C 125.57000000000001 19.910000000000004 125.5 19.930000000000003 125.42 19.930000000000003 C 123.12 20.060000000000002 121.31 20.240000000000002 119.98 20.480000000000004 C 118.65 20.720000000000002 117.60000000000001 21.140000000000004 116.83 21.730000000000004 C 116.05 22.320000000000004 115.67 23.180000000000003 115.67 24.310000000000002 C 115.67 25.44 116.04 26.230000000000004 116.78 26.85 C 117.52 27.470000000000002 118.71000000000001 27.78 120.34 27.78 C 121.97 27.78 123.33 27.44 124.4 26.75 C 125.03 26.34 125.52000000000001 25.84 125.87 25.23 L 126.66000000000001 27.6 L 128.94 27.6 L 128.94 19.700000000000003 C 128.94 18.120000000000005 128.42 16.930000000000003 127.37 16.130000000000003 Z M 124.31 24.68 C 123.48 25.16 122.5 25.4 121.37 25.4 C 120.59 25.4 120.02000000000001 25.279999999999998 119.64 25.049999999999997 C 119.26 24.819999999999997 119.07000000000001 24.49 119.07000000000001 24.049999999999997 C 119.07000000000001 23.539999999999996 119.31 23.15 119.79 22.879999999999995 C 120.27000000000001 22.609999999999996 120.95 22.389999999999997 121.81 22.239999999999995 C 122.68 22.089999999999996 123.87 21.949999999999996 125.4 21.839999999999996 C 125.48 21.839999999999996 125.56 21.839999999999996 125.64 21.829999999999995 L 125.64 22.539999999999996 C 125.58 23.489999999999995 125.14 24.209999999999994 124.32000000000001 24.689999999999994 Z" stroke-linecap="round" />
</g>
</g>
</g>
</svg>